<mxfile host="app.diagrams.net" modified="2024-05-15T11:59:46.461Z" agent="Mozilla/5.0 (Windows NT 10.0; Win64; x64; rv:126.0) Gecko/20100101 Firefox/126.0" etag="ufpO9jpcQ-F8514EfWj5" version="24.4.0" type="device">
  <diagram name="Seite-1" id="UCyizDy8B9AwDZK-VCfc">
    <mxGraphModel dx="1221" dy="634" grid="1" gridSize="10" guides="1" tooltips="1" connect="1" arrows="1" fold="1" page="0" pageScale="1" pageWidth="827" pageHeight="1169" math="0" shadow="0">
      <root>
        <mxCell id="0" />
        <mxCell id="1" parent="0" />
        <mxCell id="5mVqU2uKlJ-Oi3SgOGfC-9" value="" style="rounded=0;whiteSpace=wrap;html=1;fillColor=default;strokeColor=none;" vertex="1" parent="1">
          <mxGeometry x="80" y="120" width="500" height="290" as="geometry" />
        </mxCell>
        <mxCell id="5mVqU2uKlJ-Oi3SgOGfC-5" value="" style="rounded=0;whiteSpace=wrap;html=1;fillColor=#f5f5f5;fontColor=#333333;strokeColor=none;" vertex="1" parent="1">
          <mxGeometry x="80" y="80" width="500" height="40" as="geometry" />
        </mxCell>
        <mxCell id="5mVqU2uKlJ-Oi3SgOGfC-1" value="3" style="text;html=1;align=center;verticalAlign=middle;resizable=0;points=[];autosize=1;strokeColor=none;fillColor=none;fontSize=100;" vertex="1" parent="1">
          <mxGeometry x="290" y="180" width="80" height="130" as="geometry" />
        </mxCell>
        <mxCell id="5mVqU2uKlJ-Oi3SgOGfC-2" value="Weiter" style="rounded=1;whiteSpace=wrap;html=1;fillColor=#0066CC;strokeColor=none;gradientColor=none;fontColor=#FFFFFF;" vertex="1" parent="1">
          <mxGeometry x="450" y="370" width="120" height="30" as="geometry" />
        </mxCell>
        <mxCell id="5mVqU2uKlJ-Oi3SgOGfC-3" value="ZurÃ¼ck" style="rounded=1;whiteSpace=wrap;html=1;fillColor=#0066CC;strokeColor=none;gradientColor=none;fontColor=#FFFFFF;" vertex="1" parent="1">
          <mxGeometry x="90" y="370" width="120" height="30" as="geometry" />
        </mxCell>
        <mxCell id="5mVqU2uKlJ-Oi3SgOGfC-4" value="" style="rounded=0;whiteSpace=wrap;html=1;fillColor=#7EA6E0;strokeColor=none;" vertex="1" parent="1">
          <mxGeometry x="80" y="80" width="170" height="5" as="geometry" />
        </mxCell>
        <mxCell id="5mVqU2uKlJ-Oi3SgOGfC-6" value="Titel des Lehrbuchs" style="text;html=1;align=left;verticalAlign=middle;resizable=0;points=[];autosize=1;strokeColor=none;fillColor=none;fontStyle=1" vertex="1" parent="1">
          <mxGeometry x="85" y="85" width="130" height="30" as="geometry" />
        </mxCell>
        <mxCell id="5mVqU2uKlJ-Oi3SgOGfC-7" value="3 / 10" style="text;html=1;align=right;verticalAlign=middle;resizable=0;points=[];autosize=1;strokeColor=none;fillColor=none;" vertex="1" parent="1">
          <mxGeometry x="520" y="85" width="50" height="30" as="geometry" />
        </mxCell>
        <mxCell id="5mVqU2uKlJ-Oi3SgOGfC-8" value="" style="rounded=0;whiteSpace=wrap;html=1;fillColor=none;" vertex="1" parent="1">
          <mxGeometry x="80" y="80" width="500" height="330" as="geometry" />
        </mxCell>
      </root>
    </mxGraphModel>
  </diagram>
</mxfile>
